<?xml version="1.0" standalone="no"?>
<!DOCTYPE svg PUBLIC "-//W3C//DTD SVG 20010904//EN"
 "http://www.w3.org/TR/2001/REC-SVG-20010904/DTD/svg10.dtd">
<svg version="1.0" xmlns="http://www.w3.org/2000/svg"
 width="1024.000000pt" height="1024.000000pt" viewBox="0 0 1024.000000 1024.000000"
 preserveAspectRatio="xMidYMid meet">
<metadata>
Created by potrace 1.14, written by Peter Selinger 2001-2017
</metadata>
<g transform="translate(0.000000,1024.000000) scale(0.100000,-0.100000)"
fill="#000000" stroke="none">
<path d="M4830 10138 c-10 -4 -23 -16 -29 -27 -8 -14 -11 -625 -11 -2025 l0
-2006 -67 -1 c-77 0 -299 0 -355 1 l-38 0 0 1375 c0 1360 0 1374 -20 1393 -18
17 -40 18 -261 19 -223 0 -243 -1 -260 -18 -18 -18 -19 -69 -19 -1657 0 -1613
0 -1639 20 -1657 18 -16 89 -17 1286 -17 1230 -1 1267 0 1278 18 6 11 13 28
16 39 3 11 5 748 5 1639 l-1 1619 -21 17 c-18 14 -51 17 -259 17 -231 1 -238
0 -259 -21 l-22 -22 0 -1367 c0 -752 -2 -1369 -5 -1372 -4 -4 -267 -8 -415 -6
l-43 1 0 2013 c0 1994 0 2014 -20 2032 -18 16 -44 18 -250 19 -127 0 -240 -2
-250 -6z"/>
<path d="M3812 4752 c-12 -2 -27 -12 -32 -22 -7 -13 -10 -574 -10 -1652 0
-1593 1 -1633 19 -1652 18 -17 37 -19 260 -19 219 0 242 1 261 18 20 18 20 26
20 1394 l0 1376 230 0 230 0 0 -2011 c0 -1719 2 -2013 14 -2030 13 -18 30 -19
256 -22 207 -3 245 -1 266 13 l24 15 2 2018 3 2017 228 0 227 0 1 -35 c0 -19
1 -637 1 -1373 1 -1230 2 -1340 17 -1359 16 -19 28 -20 252 -21 128 0 243 3
255 7 12 3 25 16 30 29 6 13 9 679 9 1649 0 1540 -1 1629 -18 1645 -17 17 -88
18 -1270 18 -689 0 -1262 -1 -1275 -3z"/>
</g>
</svg>
